# xmcd
#
# Track frame offsets:
#	150
#	18653
#	33437
#	49487
#	64519
#	78712
#	92591
#	110076
#	128307
#	142455
#	160958
#	175742
#	191792
#	206824
#	221017
#	234896
#	252381
#	270612
#
# Disc length: 3796
#
# Revision: 1
# Processed by: cddbd v1.5.2PL0 Copyright (c) Steve Scherf et al.
# Submitted via: kJams Pro (development) 1.0patch45.4
#
DISCID=0e0ed212
DTITLE=Various Artist - NSC 3006
DYEAR=1995
DGENRE=Country
TTITLE0=Billy Gilman - One Voice
TTITLE1=Jo Dee Messina - That's The Way
TTITLE2=Toby Keith - Country Come To Town
TTITLE3=Martina McBride - There You Are
TTITLE4=Diamond Rio - Stuff
TTITLE5=Trisha Yearwood - Where Are You Now
TTITLE6=Steve Holy - Blue Moon
TTITLE7=Chely Wright - She Went For Cigarettes
TTITLE8=Tracy Lawrence - Lonely
TTITLE9=Billy Gilman - One Voice
TTITLE10=Jo Dee Messina - That's The Way
TTITLE11=Toby Keith - Country Comes To Town
TTITLE12=Martina McBride - There You Are
TTITLE13=Diamond Rio - Stuff
TTITLE14=Trisha Yearwood - Where Are You Now
TTITLE15=Steve Holy - Blue Moon
TTITLE16=Chely Wright - She Went For Cigarettes
TTITLE17=Tracy Lawrence - Lonely
EXTD=
EXTT0=
EXTT1=
EXTT2=
EXTT3=
EXTT4=
EXTT5=
EXTT6=
EXTT7=
EXTT8=
EXTT9=
EXTT10=
EXTT11=
EXTT12=
EXTT13=
EXTT14=
EXTT15=
EXTT16=
EXTT17=
PLAYORDER=
